<mxfile host="app.diagrams.net" modified="2022-08-14T15:00:30.813Z" agent="5.0 (Macintosh; Intel Mac OS X 10_15_7) AppleWebKit/537.36 (KHTML, like Gecko) Chrome/103.0.0.0 Safari/537.36" etag="4Ng4x3SOP7vyua1XI1WI" version="20.2.3" type="github">
  <diagram id="9ukSp3C8Y-Nwn_xwPwIa" name="第 1 页">
    <mxGraphModel dx="946" dy="543" grid="1" gridSize="10" guides="1" tooltips="1" connect="1" arrows="1" fold="1" page="1" pageScale="1" pageWidth="827" pageHeight="1169" math="0" shadow="0">
      <root>
        <mxCell id="0" />
        <mxCell id="1" parent="0" />
        <mxCell id="wvke94S_08FStnUz0QJX-3" value="" style="verticalLabelPosition=bottom;verticalAlign=top;html=1;shape=mxgraph.basic.smiley" vertex="1" parent="1">
          <mxGeometry x="340" y="100" width="100" height="100" as="geometry" />
        </mxCell>
        <mxCell id="wvke94S_08FStnUz0QJX-5" value="Hello Draw.io" style="text;html=1;resizable=0;autosize=1;align=center;verticalAlign=middle;points=[];fillColor=none;strokeColor=none;rounded=0;" vertex="1" parent="1">
          <mxGeometry x="345" y="225" width="90" height="30" as="geometry" />
        </mxCell>
      </root>
    </mxGraphModel>
  </diagram>
</mxfile>
